<svg
  width="408"
  height="227"
  viewBox="0 0 408 227"
  fill="none"
  xmlns="http://www.w3.org/2000/svg"
>
  <rect width="275" height="185" rx="20" fill="white" fill-opacity="0.08" />
  <path
    d="M44.96 142V68.784L27.68 79.408V60.208L44.96 49.84H62.752V142H44.96ZM121.261 143.92C114.434 143.92 108.461 142.491 103.341 139.632C98.221 136.773 94.2317 132.784 91.373 127.664C88.5143 122.544 87.085 116.571 87.085 109.744V82.096C87.085 75.2693 88.5143 69.296 91.373 64.176C94.2317 59.056 98.221 55.0667 103.341 52.208C108.461 49.3493 114.434 47.92 121.261 47.92C128.088 47.92 134.061 49.3493 139.181 52.208C144.301 55.0667 148.29 59.056 151.149 64.176C154.008 69.296 155.437 75.2693 155.437 82.096V109.744C155.437 116.571 154.008 122.544 151.149 127.664C148.29 132.784 144.301 136.773 139.181 139.632C134.061 142.491 128.088 143.92 121.261 143.92ZM121.261 127.408C124.333 127.408 127.106 126.683 129.581 125.232C132.056 123.781 134.018 121.819 135.469 119.344C136.92 116.869 137.645 114.096 137.645 111.024V80.688C137.645 77.616 136.92 74.8427 135.469 72.368C134.018 69.8933 132.056 67.9307 129.581 66.48C127.106 65.0293 124.333 64.304 121.261 64.304C118.189 64.304 115.416 65.0293 112.941 66.48C110.466 67.9307 108.504 69.8933 107.053 72.368C105.602 74.8427 104.877 77.616 104.877 80.688V111.024C104.877 114.096 105.602 116.869 107.053 119.344C108.504 121.819 110.466 123.781 112.941 125.232C115.416 126.683 118.189 127.408 121.261 127.408ZM181.375 142L173.375 134L237.425 70L245.425 78.05L181.375 142ZM230.425 143.5C227.125 143.5 224.108 142.7 221.375 141.1C218.675 139.467 216.508 137.3 214.875 134.6C213.242 131.867 212.425 128.833 212.425 125.5C212.425 122.233 213.258 119.233 214.925 116.5C216.592 113.767 218.792 111.583 221.525 109.95C224.258 108.317 227.225 107.5 230.425 107.5C233.725 107.5 236.742 108.317 239.475 109.95C242.208 111.55 244.375 113.717 245.975 116.45C247.608 119.15 248.425 122.167 248.425 125.5C248.425 128.833 247.608 131.867 245.975 134.6C244.375 137.3 242.208 139.467 239.475 141.1C236.742 142.7 233.725 143.5 230.425 143.5ZM230.425 133.2C231.792 133.2 233.058 132.85 234.225 132.15C235.425 131.45 236.375 130.517 237.075 129.35C237.775 128.183 238.125 126.9 238.125 125.5C238.125 124.1 237.775 122.817 237.075 121.65C236.375 120.483 235.425 119.55 234.225 118.85C233.058 118.15 231.792 117.8 230.425 117.8C229.025 117.8 227.742 118.15 226.575 118.85C225.408 119.55 224.458 120.483 223.725 121.65C223.025 122.817 222.675 124.1 222.675 125.5C222.675 126.9 223.025 128.183 223.725 129.35C224.458 130.517 225.408 131.45 226.575 132.15C227.742 132.85 229.025 133.2 230.425 133.2ZM188.375 104.5C185.075 104.5 182.058 103.7 179.325 102.1C176.592 100.467 174.408 98.3 172.775 95.6C171.175 92.8667 170.375 89.8333 170.375 86.5C170.375 83.2333 171.208 80.2333 172.875 77.5C174.542 74.7667 176.742 72.5833 179.475 70.95C182.208 69.3167 185.175 68.5 188.375 68.5C191.675 68.5 194.675 69.3167 197.375 70.95C200.108 72.55 202.292 74.7167 203.925 77.45C205.558 80.15 206.375 83.1667 206.375 86.5C206.375 89.8333 205.558 92.8667 203.925 95.6C202.292 98.3 200.108 100.467 197.375 102.1C194.675 103.7 191.675 104.5 188.375 104.5ZM188.375 94.2C189.775 94.2 191.058 93.85 192.225 93.15C193.392 92.45 194.325 91.5167 195.025 90.35C195.725 89.1833 196.075 87.9 196.075 86.5C196.075 85.1 195.725 83.8167 195.025 82.65C194.325 81.4833 193.392 80.55 192.225 79.85C191.058 79.15 189.775 78.8 188.375 78.8C186.975 78.8 185.692 79.15 184.525 79.85C183.358 80.55 182.425 81.4833 181.725 82.65C181.025 83.8167 180.675 85.1 180.675 86.5C180.675 87.9 181.025 89.1833 181.725 90.35C182.425 91.5167 183.358 92.45 184.525 93.15C185.692 93.85 186.975 94.2 188.375 94.2Z"
    fill="#89FFB1"
  />
  <g filter="url(#filter0_d_333_7)">
    <rect x="215" y="139" width="183" height="78" rx="5" fill="#0D0D0D" />
    <path
      d="M233.5 197V161H247.775C250.208 161 252.2 161.492 253.75 162.475C255.317 163.442 256.475 164.683 257.225 166.2C257.992 167.717 258.375 169.283 258.375 170.9C258.375 172.883 257.9 174.567 256.95 175.95C256.017 177.333 254.742 178.267 253.125 178.75V177.5C255.392 178.017 257.108 179.092 258.275 180.725C259.458 182.358 260.05 184.217 260.05 186.3C260.05 188.433 259.642 190.3 258.825 191.9C258.008 193.5 256.792 194.75 255.175 195.65C253.575 196.55 251.592 197 249.225 197H233.5ZM239.6 191.325H248.475C249.525 191.325 250.467 191.117 251.3 190.7C252.133 190.267 252.783 189.667 253.25 188.9C253.733 188.117 253.975 187.192 253.975 186.125C253.975 185.158 253.767 184.292 253.35 183.525C252.933 182.758 252.325 182.15 251.525 181.7C250.725 181.233 249.767 181 248.65 181H239.6V191.325ZM239.6 175.375H247.7C248.567 175.375 249.342 175.208 250.025 174.875C250.708 174.542 251.25 174.05 251.65 173.4C252.05 172.75 252.25 171.95 252.25 171C252.25 169.75 251.85 168.708 251.05 167.875C250.25 167.042 249.133 166.625 247.7 166.625H239.6V175.375ZM276.968 197.75C274.268 197.75 271.91 197.142 269.893 195.925C267.876 194.708 266.31 193.033 265.193 190.9C264.093 188.75 263.543 186.283 263.543 183.5C263.543 180.667 264.11 178.183 265.243 176.05C266.376 173.917 267.951 172.25 269.968 171.05C271.985 169.85 274.318 169.25 276.968 169.25C279.685 169.25 282.051 169.858 284.068 171.075C286.085 172.292 287.651 173.975 288.768 176.125C289.885 178.258 290.443 180.717 290.443 183.5C290.443 186.3 289.876 188.775 288.743 190.925C287.626 193.058 286.06 194.733 284.043 195.95C282.026 197.15 279.668 197.75 276.968 197.75ZM276.968 192.1C279.368 192.1 281.151 191.3 282.318 189.7C283.485 188.1 284.068 186.033 284.068 183.5C284.068 180.883 283.476 178.8 282.293 177.25C281.11 175.683 279.335 174.9 276.968 174.9C275.351 174.9 274.018 175.267 272.968 176C271.935 176.717 271.168 177.725 270.668 179.025C270.168 180.308 269.918 181.8 269.918 183.5C269.918 186.117 270.51 188.208 271.693 189.775C272.893 191.325 274.651 192.1 276.968 192.1ZM314.626 197V184C314.626 183.15 314.568 182.208 314.451 181.175C314.335 180.142 314.06 179.15 313.626 178.2C313.21 177.233 312.576 176.442 311.726 175.825C310.893 175.208 309.76 174.9 308.326 174.9C307.56 174.9 306.801 175.025 306.051 175.275C305.301 175.525 304.618 175.958 304.001 176.575C303.401 177.175 302.918 178.008 302.551 179.075C302.185 180.125 302.001 181.475 302.001 183.125L298.426 181.6C298.426 179.3 298.868 177.217 299.751 175.35C300.651 173.483 301.968 172 303.701 170.9C305.435 169.783 307.568 169.225 310.101 169.225C312.101 169.225 313.751 169.558 315.051 170.225C316.351 170.892 317.385 171.742 318.151 172.775C318.918 173.808 319.485 174.908 319.851 176.075C320.218 177.242 320.451 178.35 320.551 179.4C320.668 180.433 320.726 181.275 320.726 181.925V197H314.626ZM295.901 197V170H301.276V178.375H302.001V197H295.901ZM337.375 197.775C335.375 197.775 333.725 197.442 332.425 196.775C331.125 196.108 330.092 195.258 329.325 194.225C328.558 193.192 327.992 192.092 327.625 190.925C327.258 189.758 327.017 188.658 326.9 187.625C326.8 186.575 326.75 185.725 326.75 185.075V170H332.85V183C332.85 183.833 332.908 184.775 333.025 185.825C333.142 186.858 333.408 187.858 333.825 188.825C334.258 189.775 334.892 190.558 335.725 191.175C336.575 191.792 337.717 192.1 339.15 192.1C339.917 192.1 340.675 191.975 341.425 191.725C342.175 191.475 342.85 191.05 343.45 190.45C344.067 189.833 344.558 188.992 344.925 187.925C345.292 186.858 345.475 185.508 345.475 183.875L349.05 185.4C349.05 187.7 348.6 189.783 347.7 191.65C346.817 193.517 345.508 195.008 343.775 196.125C342.042 197.225 339.908 197.775 337.375 197.775ZM346.2 197V188.625H345.475V170H351.525V197H346.2ZM368.974 197.75C365.64 197.75 362.932 197 360.849 195.5C358.765 194 357.499 191.892 357.049 189.175L363.199 188.225C363.515 189.558 364.215 190.608 365.299 191.375C366.382 192.142 367.749 192.525 369.399 192.525C370.849 192.525 371.965 192.242 372.749 191.675C373.549 191.092 373.949 190.3 373.949 189.3C373.949 188.683 373.799 188.192 373.499 187.825C373.215 187.442 372.582 187.075 371.599 186.725C370.615 186.375 369.107 185.933 367.074 185.4C364.807 184.8 363.007 184.158 361.674 183.475C360.34 182.775 359.382 181.95 358.799 181C358.215 180.05 357.924 178.9 357.924 177.55C357.924 175.867 358.365 174.4 359.249 173.15C360.132 171.9 361.365 170.942 362.949 170.275C364.532 169.592 366.399 169.25 368.549 169.25C370.649 169.25 372.507 169.575 374.124 170.225C375.757 170.875 377.074 171.8 378.074 173C379.074 174.2 379.69 175.608 379.924 177.225L373.774 178.325C373.624 177.175 373.099 176.267 372.199 175.6C371.315 174.933 370.132 174.558 368.649 174.475C367.232 174.392 366.09 174.608 365.224 175.125C364.357 175.625 363.924 176.333 363.924 177.25C363.924 177.767 364.099 178.208 364.449 178.575C364.799 178.942 365.499 179.308 366.549 179.675C367.615 180.042 369.199 180.492 371.299 181.025C373.449 181.575 375.165 182.208 376.449 182.925C377.749 183.625 378.682 184.467 379.249 185.45C379.832 186.433 380.124 187.625 380.124 189.025C380.124 191.742 379.132 193.875 377.149 195.425C375.182 196.975 372.457 197.75 368.974 197.75Z"
      fill="white"
    />
  </g>
  <defs>
    <filter
      id="filter0_d_333_7"
      x="215"
      y="139"
      width="193"
      height="88"
      filterUnits="userSpaceOnUse"
      color-interpolation-filters="sRGB"
    >
      <feFlood flood-opacity="0" result="BackgroundImageFix" />
      <feColorMatrix
        in="SourceAlpha"
        type="matrix"
        values="0 0 0 0 0 0 0 0 0 0 0 0 0 0 0 0 0 0 127 0"
        result="hardAlpha"
      />
      <feOffset dx="10" dy="10" />
      <feComposite in2="hardAlpha" operator="out" />
      <feColorMatrix
        type="matrix"
        values="0 0 0 0 0.537255 0 0 0 0 1 0 0 0 0 0.694118 0 0 0 1 0"
      />
      <feBlend
        mode="normal"
        in2="BackgroundImageFix"
        result="effect1_dropShadow_333_7"
      />
      <feBlend
        mode="normal"
        in="SourceGraphic"
        in2="effect1_dropShadow_333_7"
        result="shape"
      />
    </filter>
  </defs>
</svg>