<svg width="514" height="384" viewBox="0 0 514 384" fill="none" xmlns="http://www.w3.org/2000/svg">
<g filter="url(#filter0_d_445_312)">
<path fill-rule="evenodd" clip-rule="evenodd" d="M79.296 47.5593C72.8429 50.9054 74.5347 60.6423 81.6805 61.2831C84.3252 61.5208 86.1803 60.7655 87.9759 58.72C89.9768 56.4419 90.3814 54.1673 89.277 51.4076C87.6806 47.4171 83.0293 45.6236 79.296 47.5593ZM197.371 47.6456C195.03 48.8979 193.614 51.3742 193.614 54.2192C193.614 58.0664 196.785 61.2364 200.632 61.2364C208.442 61.2364 210.983 51.0743 204.044 47.5886C201.741 46.4313 199.608 46.4492 197.371 47.6456ZM291.837 47.1101C288.765 48.4722 287.234 50.8397 287.234 54.2305C287.234 56.4988 287.48 57.2028 288.8 58.7056C293.408 63.9545 301.61 60.9278 301.61 53.9789C301.61 49.2947 295.924 45.2986 291.837 47.1101ZM409.445 47.5593C407.163 48.7428 405.327 51.4856 405.327 53.7129C405.327 60.7163 413.527 63.9576 418.091 58.7585C420.125 56.4429 420.536 54.1801 419.426 51.4076C417.83 47.4171 413.179 45.6236 409.445 47.5593ZM73.8945 63.8231C68.6521 66.2435 66.2892 73.12 66.2261 86.1409C66.1937 92.7376 66.2374 93.0251 67.405 93.9709C68.8539 95.1446 69.0475 95.162 70.3203 94.2312C71.204 93.5848 71.3139 92.772 71.3791 86.4012C71.4468 79.7172 72.16 74.1109 73.1643 72.3611C73.4164 71.9221 73.6131 82.3481 73.6223 96.5925L73.6377 121.594L74.8402 122.992C76.3616 124.761 78.8513 124.881 80.4697 123.264C81.5731 122.161 81.5993 121.817 81.7457 106.492C81.873 93.192 82.008 90.845 82.6442 90.845C83.2845 90.845 83.3933 93.1252 83.3933 106.505C83.3933 121.481 83.438 122.21 84.4202 123.192C85.7742 124.546 89.0654 124.584 90.2643 123.259C91.055 122.385 91.1336 120.032 91.1439 97.0007C91.1511 80.1269 91.3262 71.8734 91.6686 72.2158C92.6159 73.1631 93.6264 80.7733 93.6444 87.0933C93.6608 92.8747 93.7455 93.4122 94.7483 94.1146C95.3455 94.5331 96.2116 94.7446 96.6738 94.5855C98.5135 93.9503 98.7974 92.8279 98.7789 86.2543C98.7476 75.0346 96.7569 67.83 92.867 64.8613C90.9421 63.3918 90.8368 63.3743 83.1777 63.2439C77.4322 63.1464 75.0374 63.2958 73.8945 63.8231ZM192.563 63.6501C189.624 64.5301 187.218 67.8562 185.704 73.1313C184.68 76.6971 184.177 92.6087 185.054 93.6659C185.832 94.6029 188.329 94.6851 189.037 93.7973C189.318 93.4446 189.681 89.4587 189.844 84.9404C190.006 80.4222 190.439 75.6857 190.807 74.4149C191.386 72.414 191.509 75.4526 191.732 97.0813C191.974 120.723 192.041 122.116 192.966 123.138C194.322 124.635 197.486 124.612 198.9 123.095C199.906 122.016 199.947 121.361 199.947 106.408C199.947 92.9168 200.05 90.845 200.717 90.845C201.385 90.845 201.487 92.8911 201.487 106.179C201.487 120.915 201.529 121.566 202.552 122.866C203.372 123.91 204.068 124.219 205.595 124.219C207.121 124.219 207.818 123.91 208.638 122.866C209.68 121.542 209.703 120.988 209.753 96.5519C209.8 73.4712 209.863 71.765 210.587 73.9014C211.112 75.4484 211.454 79.0631 211.623 84.8393C211.869 93.2325 211.909 93.4887 213.1 94.2687C214.213 94.9983 214.439 94.9947 215.607 94.2296C216.313 93.767 216.903 92.9897 216.917 92.5019C216.931 92.0141 217.067 90.2053 217.219 88.4827C217.371 86.7596 217.251 82.9195 216.952 79.9488C216.017 70.657 213.078 64.8474 208.698 63.6306C206.493 63.0175 194.627 63.0324 192.563 63.6501ZM285.342 64.1168C280.751 66.2019 278.567 72.146 278.135 83.7354C277.981 87.8732 278.008 91.8688 278.195 92.6143C278.786 94.9664 282.365 95.4311 282.879 93.2228C283.019 92.621 283.228 88.894 283.344 84.9404C283.547 78.0218 284.433 72.1557 285.202 72.6317C285.405 72.757 285.535 83.4335 285.491 96.3568C285.447 109.281 285.6 120.603 285.831 121.517C286.062 122.431 286.688 123.414 287.222 123.699C288.752 124.518 291.253 124.307 292.289 123.271C293.153 122.407 293.26 120.978 293.524 106.803C293.789 92.5887 293.96 90.2114 294.665 90.9164C294.798 91.0499 294.927 97.8088 294.951 105.937C294.975 114.064 295.211 121.282 295.475 121.976C296.487 124.639 301.341 125.1 302.648 122.658C302.955 122.083 303.157 111.991 303.166 96.6551C303.175 82.3758 303.372 71.9221 303.624 72.3611C304.609 74.0776 305.337 79.6741 305.43 86.2482C305.484 90.0738 305.7 93.4816 305.91 93.8214C306.469 94.7256 309.073 94.5752 309.891 93.5909C311.469 91.6922 310.703 76.3198 308.758 70.8208C307.614 67.5856 305.374 64.8387 303.159 63.9525C299.983 62.6817 288.265 62.7901 285.342 64.1168ZM404.606 63.6306C402.486 64.2975 399.918 66.9643 398.73 69.7333C397.183 73.3403 396.508 78.0583 396.421 85.8836C396.346 92.676 396.393 93.0292 397.495 93.9226C398.804 94.9829 400.499 94.759 401.209 93.4328C401.467 92.9496 401.688 89.5168 401.698 85.8041C401.711 81.161 402 77.8888 402.624 75.3221L403.53 71.591L403.787 96.8246C404.03 120.719 404.096 122.115 405.022 123.138C406.49 124.759 409.56 124.618 410.938 122.866C411.961 121.566 412.002 120.915 412.002 106.179C412.002 92.8911 412.105 90.845 412.772 90.845C413.44 90.845 413.543 92.9168 413.543 106.408C413.543 121.361 413.584 122.016 414.59 123.095C416.14 124.759 418.794 124.778 420.474 123.138C421.473 122.163 421.501 121.46 421.501 97.0176C421.501 83.2024 421.681 72.0787 421.901 72.298C422.808 73.2057 423.684 79.7275 423.768 86.1994C423.818 89.9984 424.086 93.3814 424.365 93.7172C425.297 94.8396 426.928 94.9171 427.957 93.8877C428.836 93.0087 428.946 92.125 428.946 85.9458C428.946 74.764 427.003 67.9039 422.962 64.8197C421.107 63.4041 420.925 63.3738 413.584 63.2686C409.466 63.2095 405.426 63.3728 404.606 63.6306ZM83.9396 67.0557C84.4998 68.5303 83.952 69.2574 82.2684 69.2728C81.0987 69.283 80.6643 68.4554 81.0443 66.9407C81.4807 65.2012 83.2614 65.272 83.9396 67.0557ZM202.34 68.4821C202.005 69.3534 200.609 69.5213 199.507 68.8235C198.494 68.1817 199.257 66.2989 200.613 66.0946C201.879 65.9041 202.826 67.2139 202.34 68.4821ZM414.167 67.0069C414.653 68.0754 414.627 68.4184 414.027 68.8066C411.988 70.1266 409.843 67.7843 411.788 66.3621C413.098 65.4045 413.484 65.5092 414.167 67.0069ZM295.868 67.6118C295.758 68.5699 295.375 69.0658 294.679 69.1552C293.154 69.3503 292.367 68.6258 292.704 67.3366C292.926 66.4873 293.384 66.1998 294.516 66.1998C295.865 66.1998 296.013 66.3539 295.868 67.6118ZM203.069 76.7582C203.533 80.129 203.785 83.1177 203.63 83.4001C203.475 83.6825 202.772 84.6442 202.069 85.5371L200.789 87.1601L199.341 85.3379C197.67 83.2348 197.667 83.187 198.669 75.6985C199.085 72.5922 199.427 70.0126 199.429 69.9664C199.431 69.9207 200.062 70.0506 200.83 70.256C202.185 70.6185 202.252 70.811 203.069 76.7582ZM414.813 75.6892C415.244 78.7576 415.596 81.7879 415.596 82.423C415.596 83.5475 413.336 86.7375 412.54 86.7375C412.321 86.7375 411.55 85.8713 410.827 84.8121L409.512 82.8867L410.251 77.7523C411.288 70.5605 411.338 70.4029 412.645 70.1944C413.28 70.0927 413.851 70.0321 413.915 70.0599C413.978 70.0876 414.383 72.6209 414.813 75.6892ZM84.3406 74.0298C85.7028 82.8523 85.7013 82.9699 84.2025 84.9348C83.4462 85.9263 82.6663 86.7375 82.4686 86.7375C82.2714 86.7375 81.4756 85.9427 80.7003 84.9713L79.2914 83.2055L80.098 77.398C81.1028 70.1656 81.054 70.3074 82.5364 70.3074C83.6675 70.3074 83.8118 70.6052 84.3406 74.0298ZM295.973 71.2059C295.978 71.7003 296.317 74.6141 296.725 77.6814L297.467 83.2589L296.14 84.998C295.41 85.955 294.637 86.7375 294.422 86.7375C294.207 86.7375 293.416 85.9319 292.665 84.9476L291.3 83.1573L292.161 76.7326L293.022 70.3074H294.492C295.546 70.3074 295.965 70.5615 295.973 71.2059ZM136.792 97.1301C131.966 99.7194 129.842 106.166 132.266 110.862C135.685 117.485 143.717 118.861 148.872 113.707C155.357 107.222 151.423 96.8184 142.223 96.1253C139.621 95.9291 138.719 96.096 136.792 97.1301ZM349.104 96.9499C345.352 98.6817 343.2 102.177 343.2 106.539C343.2 110.658 345.602 114.224 349.618 116.066C352.462 117.37 354.858 117.262 358.024 115.684C362.619 113.394 364.8 108.587 363.506 103.598C361.932 97.53 354.891 94.2794 349.104 96.9499ZM66.5526 108.273C61.8366 109.621 56.1177 112.606 53.6368 115.013C45.4944 122.915 51.4664 132.678 67.1369 137.083C69.1594 137.652 73.8698 138.389 77.6047 138.722L84.3961 139.327L85.2274 141.4C88.9725 150.739 103.93 189.434 103.925 189.769C103.921 190.004 102.706 191.259 101.224 192.558C95.7064 197.396 93.9073 203.991 96.6091 209.473C100.881 218.14 115.2 225.04 132.685 226.856C137.357 227.341 147.755 227.231 153.228 226.639L156.571 226.277L165.639 240.84C170.625 248.85 178.06 260.799 182.16 267.393L189.615 279.383L186.904 282.579C185.413 284.337 183.52 287.144 182.699 288.816C181.386 291.491 181.206 292.415 181.206 296.489C181.206 300.697 181.362 301.438 182.911 304.583C188.671 316.284 206.77 325.556 230.24 328.829C237.399 329.827 252.321 330.194 258.994 329.536C271.682 328.284 284.12 325.151 293.094 320.946C313.844 311.223 320.042 295.577 308.255 282.681C306.8 281.089 305.725 279.487 305.865 279.121C306.09 278.537 318.347 258.746 333.433 234.609L338.407 226.65L340.675 226.683C341.922 226.701 345.716 226.899 349.104 227.123C370.568 228.542 392.955 220.689 398.359 209.845C401.472 203.598 399.18 196.455 392.359 191.145L390.944 190.042L400.737 164.961C406.123 151.166 410.688 139.733 410.881 139.555C411.074 139.377 413.35 139.083 415.938 138.904C427.048 138.131 436.581 134.919 441.722 130.216C443.277 128.793 445.365 124.398 445.372 122.534C445.391 117.22 439.59 112.01 430.126 108.84C424.075 106.812 422.785 106.791 422.785 108.718C422.785 110.012 423.04 110.227 425.24 110.791C428.804 111.705 432.586 113.57 434.782 115.499C440.826 120.805 438.781 127.277 429.741 131.452C425.299 133.503 419.402 134.583 412.516 134.607C405.451 134.631 400.378 133.637 395.328 131.239C382.772 125.276 384.858 115.498 399.679 110.838C402.162 110.058 402.482 109.804 402.325 108.741C402.227 108.076 402.049 107.431 401.929 107.307C401.462 106.824 394.274 108.909 390.682 110.569C386.485 112.509 381.944 116.38 380.865 118.94C378.419 124.741 381.959 130.384 390.666 134.562C394.647 136.472 402.63 138.573 405.969 138.588C406.746 138.592 407.381 138.695 407.381 138.817C407.381 139.094 380.752 183.312 380.119 184.086C379.788 184.49 378.52 184.324 375.677 183.505C373.487 182.875 370.7 182.194 369.482 181.991L367.268 181.623L367.429 183.806L367.589 185.989L371.183 186.967C379.353 189.191 386.334 193.72 388.6 198.267C391.081 203.246 390.017 207.385 385.101 211.878C376.742 219.517 358.455 223.095 342.173 220.276C332.187 218.547 325.79 215.747 321.121 211.062C316.788 206.714 315.934 202.171 318.625 197.792C321.345 193.367 328.688 188.8 336.005 186.982L339.602 186.088L339.604 183.9L339.606 181.712L337.423 182.046C336.224 182.229 333.434 182.894 331.227 183.525L327.211 184.671L326.055 182.813C320.324 173.608 300.07 139.647 300.07 139.245C300.07 138.96 301.436 138.573 303.106 138.384C310.799 137.514 318.727 134.299 322.89 130.362C325.874 127.539 326.906 125.385 326.861 122.076C326.786 116.644 319.993 111.011 310.267 108.316C305.216 106.917 304.689 106.952 304.7 108.687C304.709 109.991 305.003 110.192 308.55 111.314C315.353 113.468 320.113 117.937 320.086 122.145C320.061 126.013 314.941 130.557 308.215 132.682C291.11 138.085 268.749 131.998 268.749 121.939C268.749 120.249 270.316 117.134 271.909 115.655C273.661 114.028 278.463 111.62 281.511 110.838C283.904 110.225 284.153 110.026 284.153 108.718C284.153 106.948 283.647 106.912 278.55 108.324C273.87 109.621 269.245 111.88 266.258 114.328C263.31 116.743 261.311 120.908 261.804 123.607C263.323 131.912 274.659 137.824 291.146 138.91C293.936 139.094 296.247 139.272 296.282 139.305C296.316 139.338 300.781 150.742 306.202 164.646L316.06 189.926L312.977 192.78C309.072 196.395 307.256 199.889 307.263 203.775C307.269 206.938 308.731 210.653 311.053 213.403C314.206 217.137 321.73 221.471 329.071 223.779L333.301 225.11L311.114 247.577L288.926 270.043L283.587 268.299C280.651 267.339 276.284 266.167 273.884 265.694C271.483 265.221 269.115 264.719 268.621 264.577C267.83 264.35 267.722 264.724 267.722 267.691C267.722 270.589 267.852 271.063 268.642 271.063C270.51 271.063 279.932 274.304 284.41 276.487C300.161 284.166 304.391 296.388 294.767 306.411C286.451 315.071 270.507 320.46 251.035 321.19C215.706 322.516 188.222 305.98 196.898 288.618C200.186 282.039 210.175 275.424 221.512 272.317C224.195 271.582 226.636 270.908 226.937 270.818C227.588 270.624 227.859 265.946 227.271 265.047C226.764 264.27 217.766 266.194 210.908 268.544L206.365 270.1L184.102 247.627L161.839 225.154L166.729 223.515C174.199 221.01 178.628 218.484 182.796 214.349C185.635 211.532 186.64 210.125 187.35 207.978C189.056 202.813 187.425 197.809 182.448 192.939C180.392 190.926 179.391 189.569 179.549 189.004C179.682 188.53 183.77 177.976 188.634 165.551C193.497 153.126 197.717 142.266 198.012 141.419C198.306 140.572 198.688 139.731 198.861 139.55C199.035 139.369 201.487 139.069 204.311 138.883C221.2 137.771 233.321 131 233.321 122.678C233.321 116.775 226.123 110.697 216.047 108.091C211.41 106.892 210.626 106.977 210.824 108.659C210.963 109.851 211.381 110.162 213.81 110.887C222.546 113.496 227.504 118.758 226.082 123.91C225.093 127.491 219.415 131.522 213.01 133.19C207.092 134.732 201.651 135.16 196.029 134.528C183.53 133.121 175.301 128.112 175.301 121.908C175.301 120.892 175.636 119.413 176.045 118.622C177.673 115.473 182.79 112.19 188.249 110.791C190.478 110.22 190.705 110.023 190.705 108.66C190.705 107.171 190.686 107.162 188.39 107.506C187.116 107.697 184.426 108.413 182.411 109.099C170.353 113.2 165.183 121.093 170.012 128.026C173.388 132.873 183.218 137.444 192.373 138.425C193.997 138.599 195.326 138.855 195.326 138.994C195.326 139.133 189.186 149.47 181.683 161.964L168.04 184.683L165.637 183.949C163.574 183.32 156.674 181.724 156.013 181.724C155.891 181.724 155.79 182.713 155.79 183.921V186.118L159.353 187.036C161.313 187.541 164.721 188.832 166.927 189.905C183.882 198.159 180.938 212.146 160.927 218.415C143.427 223.898 120.333 221.007 110.01 212.04C105.564 208.179 104.176 202.707 106.492 198.168C108.703 193.832 115.526 189.435 123.473 187.222L127.542 186.088L127.546 183.906C127.549 182.706 127.338 181.724 127.077 181.724C126.331 181.724 117.832 183.789 116.51 184.292C115.377 184.723 114.757 183.814 104.128 166.163C97.9733 155.942 91.8304 145.751 90.4764 143.516C89.1224 141.281 88.0144 139.289 88.0144 139.09C88.0144 138.891 89.4233 138.568 91.1454 138.373C94.9373 137.945 102.187 135.895 105.124 134.421C111.866 131.039 115.69 126.014 115.004 121.44C114.192 116.024 108.117 111.213 98.4847 108.357C93.458 106.867 92.6355 106.918 92.6355 108.718C92.6355 110.012 92.8906 110.227 95.0908 110.791C102.602 112.716 108.039 117.273 108.039 121.642C108.039 126.955 102.888 131.059 93.1227 133.528C89.4346 134.461 87.7905 134.575 80.8651 134.376C73.8883 134.174 72.3433 133.967 68.76 132.752C60.039 129.795 55.8502 125.152 57.2417 119.984C58.2255 116.331 63.6598 112.359 69.7833 110.816C71.8561 110.295 72.0974 110.08 72.0974 108.754C72.0974 106.97 71.3416 106.904 66.5526 108.273ZM128.829 120.555C121.898 123.704 118.319 134.652 118.315 152.715C118.314 156.386 118.553 160.253 118.847 161.309C119.708 164.411 122.522 165.235 124.727 163.029C125.943 161.813 125.965 161.627 125.989 152.375C126.013 142.515 126.404 138.806 127.92 134.028C128.819 131.195 128.838 131.717 129.091 167.091C129.232 186.859 129.549 203.445 129.794 203.95C130.91 206.236 135.587 207.183 137.991 205.608C140.325 204.078 140.386 203.43 140.386 180.381V158.548L141.542 158.712L142.697 158.876L142.802 180.88C142.892 199.744 143.019 203.056 143.7 204.095C144.804 205.78 146.345 206.493 148.808 206.46C150.543 206.436 151.205 206.112 152.581 204.61L154.25 202.79L154.265 166.97C154.275 143.991 154.457 131.451 154.771 131.989C156.252 134.525 156.928 139.79 157.186 150.801L157.453 162.236L158.745 163.252C161.296 165.258 164.159 163.88 164.826 160.325C165.202 158.322 164.755 142.156 164.239 139.109C162.456 128.569 159.11 122.473 153.918 120.304C152.666 119.78 149.471 119.601 141.558 119.609C132.349 119.619 130.606 119.748 128.829 120.555ZM340.564 120.629C337.831 122.073 334.758 125.84 333.441 129.361C331.296 135.098 330.823 138.483 330.523 150.234L330.233 161.616L331.558 162.942C333.119 164.502 334.926 164.638 336.554 163.32C337.696 162.396 337.725 162.126 337.815 151.896C337.882 144.286 338.137 140.436 338.746 137.825C339.967 132.599 340.195 131.907 340.61 132.163C340.816 132.291 340.991 148.226 341.001 167.577C341.016 199.173 341.102 202.889 341.852 204.033C342.978 205.751 344.536 206.51 346.939 206.51C348.505 206.51 349.3 206.154 350.565 204.89L352.185 203.27L352.329 180.945C352.47 159.126 352.496 158.619 353.485 158.619C354.475 158.619 354.496 159.076 354.503 180.312C354.509 196.507 354.672 202.318 355.145 203.24C356.716 206.297 360.724 207.453 363.484 205.645C366.338 203.775 366.304 204.246 366.321 166.466C366.329 146.982 366.529 132.003 366.774 132.434C368.239 135.008 369.05 141.323 369.198 151.305C369.287 157.347 369.58 162.131 369.897 162.723C370.53 163.905 372.435 164.509 373.983 164.018C376.34 163.27 376.631 161.926 376.623 151.805C376.612 136.277 374.582 127.942 369.593 122.928C366.477 119.796 365.492 119.595 353.391 119.62C343.599 119.641 342.23 119.748 340.564 120.629ZM143.752 124.956C144.182 127.249 143.777 127.813 141.702 127.813C139.503 127.813 138.873 126.988 139.45 124.861C139.848 123.391 140.112 123.192 141.661 123.192C143.259 123.192 143.451 123.354 143.752 124.956ZM355.747 124.998C356.181 127.313 355.838 127.815 353.824 127.805C351.426 127.793 350.778 127.213 351.199 125.454C351.72 123.284 351.822 123.192 353.699 123.192C355.247 123.192 355.44 123.362 355.747 124.998ZM143.667 130.765C143.822 131.541 144.445 135.702 145.051 140.011L146.151 147.845L144.208 150.28C143.14 151.619 142.109 152.898 141.919 153.122C141.729 153.347 140.59 152.256 139.388 150.697L137.202 147.865L138.302 139.507C139.692 128.948 139.558 129.353 141.664 129.353C143.131 129.353 143.427 129.562 143.667 130.765ZM355.539 129.738C355.547 129.95 356.086 134.131 356.736 139.029L357.918 147.935L355.751 150.726L353.582 153.518L351.472 150.867C350.311 149.409 349.359 147.727 349.355 147.128C349.352 146.53 349.862 142.286 350.489 137.697L351.628 129.353H353.575C354.646 129.353 355.53 129.527 355.539 129.738ZM244.481 141.706C232.432 144.638 228.607 158.753 237.537 167.333C240.032 169.731 244.176 171.455 247.441 171.455C252.727 171.455 258.568 167.784 261.068 162.89C262.878 159.347 262.876 153.268 261.065 149.721C258.019 143.76 250.659 140.203 244.481 141.706ZM228.813 176.887C222.18 180.192 217.161 189.677 215.385 202.262C214.393 209.297 214.347 210.145 214.304 222.301C214.28 229.211 214.482 234.958 214.775 235.729C215.942 238.799 219.7 240.236 222.561 238.704C224.617 237.604 224.8 236.376 224.895 223.056C224.96 214.05 225.24 208.612 225.835 204.829C226.727 199.153 228.492 192.507 229.107 192.507C229.307 192.507 229.47 215.322 229.47 243.209C229.47 293.547 229.478 293.926 230.537 295.945C231.754 298.264 235.108 300.329 237.657 300.329C240.402 300.329 243.658 298.296 244.98 295.756L246.157 293.493V262.511V231.528H247.698H249.238V263.029V294.529L250.393 296.227C252.378 299.142 254.085 300.073 257.453 300.073C260.7 300.073 262.341 299.232 264.353 296.538C265.402 295.133 265.414 294.635 265.669 243.428L265.925 191.736L267.038 195.074C269.572 202.673 270.269 209.076 270.281 224.886L270.29 236.47L271.73 237.85C274.76 240.754 279.575 239.131 280.585 234.865C281.358 231.608 280.807 208.53 279.808 202.31C277.635 188.77 272.855 179.901 265.992 176.675C263.723 175.609 262.965 175.563 247.547 175.563H231.469L228.813 176.887ZM250.717 182.979C251.49 186.046 251.481 186.094 249.984 186.776C248.19 187.593 246.088 187.523 244.773 186.602C243.675 185.833 243.694 184.935 244.886 181.339C245.018 180.942 246.058 180.697 247.621 180.697H250.143L250.717 182.979ZM250.513 190.706C250.649 191.555 251.489 197.601 252.381 204.141L254.001 216.032L250.793 219.958C249.028 222.118 247.517 223.814 247.433 223.727C247.35 223.641 245.917 221.863 244.248 219.777L241.214 215.984L242.126 209.251C242.628 205.548 243.416 199.631 243.877 196.101C244.339 192.571 244.789 189.567 244.877 189.426C244.965 189.285 246.213 189.168 247.651 189.166C250.161 189.161 250.275 189.223 250.513 190.706Z" fill="url(#paint0_linear_445_312)"/>
</g>
<path fill-rule="evenodd" clip-rule="evenodd" d="M452.676 12.1759C450.953 12.9029 449.415 15.0066 449.411 16.6415C449.406 18.6883 450.501 20.5402 452.24 21.4261C453.604 22.1209 455.91 21.9699 457.227 21.0996C459.473 19.615 460.162 17.0626 458.952 14.7096C458.011 12.8803 456.785 12.0892 454.768 12.0082C453.917 11.9741 452.975 12.0495 452.676 12.1759ZM449.229 23.7035C448.092 23.9415 447.225 24.5036 446.202 25.6665C444.016 28.153 443.174 32.1126 443.174 39.905C443.174 44.2056 443.179 44.2503 443.741 44.8111C444.316 45.3855 445.313 45.5509 445.913 45.1711C446.393 44.8674 446.617 43.2537 446.628 40.0069C446.639 36.5513 446.948 33.4957 447.529 31.0804L447.945 29.351L448.093 32.2334C448.174 33.8187 448.3 41.3937 448.374 49.0668C448.447 56.7398 448.591 63.5183 448.693 64.1303C448.795 64.7423 449.087 65.4505 449.341 65.7043C449.983 66.3454 451.459 66.5073 452.37 66.0369C453.87 65.2625 453.867 65.2847 454.012 53.6399C454.084 47.8478 454.223 43.0296 454.32 42.9325C454.418 42.8356 454.625 42.8841 454.782 43.0404C454.996 43.2539 455.096 45.9687 455.183 53.9782C455.304 65.2053 455.308 65.2468 456.39 66.0037C457.521 66.7941 459.809 66.2232 460.315 65.0243C460.501 64.5841 460.6 59.5938 460.655 48.0291C460.732 31.4906 460.802 29.249 461.219 29.9934C461.722 30.8904 462.143 34.2702 462.359 39.1468C462.619 44.9836 462.726 45.3772 464.062 45.3772C464.644 45.3772 464.979 45.2126 465.351 44.7431C465.842 44.1221 465.85 43.9916 465.746 38.4594C465.649 33.3137 465.586 32.609 465.042 30.5577C464.373 28.0329 463.561 26.3821 462.407 25.1952C460.92 23.6666 460.679 23.6119 455.183 23.5513C452.452 23.5213 449.773 23.5896 449.229 23.7035ZM455.273 25.5183C455.489 25.7565 455.686 26.2439 455.713 26.6016C455.773 27.4264 454.847 27.8581 453.922 27.437C453.189 27.1038 453.154 26.3452 453.837 25.6186C454.446 24.9717 454.758 24.9498 455.273 25.5183ZM455.495 28.4237C455.567 28.6112 455.862 30.6377 456.151 32.927L456.676 37.0895L456.139 38.1002C455.497 39.3073 454.621 40.1822 454.271 39.9657C454.132 39.8797 453.599 39.2439 453.088 38.5526L452.158 37.2956L452.642 34.015C453.479 28.3518 453.499 28.3045 455.1 28.1141C455.245 28.0968 455.423 28.2363 455.495 28.4237ZM410.45 46.9451C407.045 48.1612 405.295 50.864 405.587 54.4548C405.729 56.2096 406.412 57.694 407.654 58.9456C409.841 61.152 412.699 61.746 415.308 60.5367C417.361 59.5848 418.356 58.6793 419.177 57.0156C419.864 55.6207 419.9 55.4205 419.803 53.5121C419.686 51.2094 419.225 50.0731 417.847 48.6969C416.02 46.8729 412.792 46.1082 410.45 46.9451ZM443.866 55.0853C437.986 56.9229 434.029 59.3644 432.374 62.1758C431.828 63.1028 431.742 63.4985 431.742 65.093C431.742 67.4753 432.324 68.6626 434.461 70.6374C436.31 72.3473 439.078 73.8418 442.278 74.8585C444.84 75.6722 448.746 76.5074 449.99 76.5074C450.641 76.5074 450.814 76.5868 450.716 76.8418C450.645 77.0256 447.066 83.0183 442.762 90.1586C430.536 110.443 431.592 108.78 430.934 108.786C430.616 108.788 428.954 108.438 427.239 108.008C425.524 107.578 423.783 107.166 423.371 107.092L422.62 106.957V108.404V109.851L425.218 110.599C428.251 111.473 431.559 112.984 433.56 114.411C435.14 115.537 437.031 117.459 437.438 118.351L437.705 118.937H441.017C442.838 118.937 444.328 118.845 444.328 118.732C444.328 118.186 442.259 115.539 440.841 114.272C439.965 113.488 439.248 112.735 439.248 112.597C439.248 112.46 441.833 105.762 444.993 97.7133C451.991 79.8859 452.826 77.8084 453.176 77.3512C453.377 77.0876 454.22 76.9248 456.337 76.7396C463.619 76.1027 469.317 74.4957 473.036 72.03C474.977 70.7435 475.71 69.9219 476.614 68.0216C478.116 64.8652 477.555 62.5726 474.626 59.8892C472.786 58.2031 468.704 56.1077 465.469 55.1886C462.908 54.4608 461.966 54.4288 461.764 55.0622C461.453 56.0404 461.816 56.3501 464.174 57.1214C468.108 58.4077 471.28 60.6573 472.174 62.7936C472.657 63.9477 472.589 65.8074 472.021 66.9791C471.357 68.3481 469.187 70.2394 467.093 71.2732C463.723 72.9369 459.466 73.741 454.034 73.7394C447.395 73.7373 442.039 72.0973 438.606 69.015C435.682 66.3901 435.698 63.1189 438.647 60.427C440.123 59.0801 441.976 58.0698 444.83 57.0561C446.978 56.2933 446.984 56.289 446.984 55.5038C446.984 54.767 446.932 54.7131 446.176 54.6663C445.731 54.6386 444.692 54.8272 443.866 55.0853ZM406.801 63.353C404.149 63.5169 403.238 63.8914 401.63 65.4767C399.094 67.9775 397.641 71.5142 396.995 76.7581C396.861 77.8472 396.654 81.8934 396.535 85.7499L396.318 92.7613L396.825 93.3037C398.017 94.5779 399.557 94.8422 400.595 93.9505C401.412 93.2488 401.575 91.8694 401.597 85.5006C401.605 82.9007 401.715 79.8047 401.84 78.6206C402.078 76.3601 402.834 73.055 403.296 72.2525C403.528 71.8487 403.588 72.0314 403.71 73.5097C403.789 74.4609 403.867 84.2773 403.884 95.3237C403.9 106.37 403.981 116.202 404.063 117.172L404.213 118.937H407.989H411.766L411.786 108.618C411.818 92.7521 412.014 89.8081 412.978 90.7692C413.252 91.0422 413.328 94.2475 413.583 116.343L413.613 118.937H417.539C419.699 118.937 421.481 118.911 421.5 118.879C421.519 118.848 421.597 108.427 421.673 95.7235C421.75 83.0199 421.89 72.5479 421.985 72.4529C422.258 72.1801 422.359 72.3946 422.843 74.2854C423.346 76.251 423.67 80.1718 423.984 88.1243C424.171 92.839 424.24 93.4466 424.633 93.8389C425.205 94.4098 426.591 94.6266 427.436 94.2773C428.644 93.7778 428.73 93.3053 428.814 86.7689C428.921 78.387 428.378 73.7454 426.852 69.9945C425.713 67.1979 423.628 64.6789 421.834 63.9329C420.177 63.2444 413.024 62.9683 406.801 63.353ZM414.021 65.9578C414.149 66.1164 414.327 66.6906 414.417 67.2341C414.64 68.5817 414.331 68.8978 412.793 68.8978C410.869 68.8978 410.544 68.3161 411.34 66.3037C411.565 65.7359 411.706 65.6695 412.689 65.6695C413.294 65.6695 413.893 65.7993 414.021 65.9578ZM415.038 76.6227L415.889 83.0794L414.347 85.1054L412.805 87.1314L411.955 86.143C411.488 85.5995 410.77 84.6048 410.361 83.9326L409.617 82.7102L410.353 77.0147C411.366 69.1709 411.071 70.0167 412.766 70.0981L414.187 70.1661L415.038 76.6227Z" fill="#6B68FF"/>
<rect x="333" y="239" width="107" height="71" rx="12" fill="#F34040"/>
<path d="M365.758 292.675C364.108 292.675 362.57 292.338 361.145 291.662C359.72 290.972 358.49 290.027 357.455 288.827C356.435 287.627 355.7 286.232 355.25 284.642L360.47 283.247C360.68 284.117 361.063 284.867 361.618 285.497C362.188 286.127 362.848 286.615 363.598 286.96C364.363 287.305 365.15 287.477 365.96 287.477C367.01 287.477 367.97 287.222 368.84 286.712C369.71 286.202 370.4 285.52 370.91 284.665C371.42 283.795 371.675 282.835 371.675 281.785C371.675 280.735 371.413 279.782 370.888 278.927C370.378 278.057 369.688 277.375 368.818 276.88C367.948 276.37 366.995 276.115 365.96 276.115C364.715 276.115 363.68 276.34 362.855 276.79C362.045 277.24 361.423 277.72 360.988 278.23L356.353 276.745L357.343 259.6H374.938V264.685H360.245L362.27 262.772L361.55 274.697L360.56 273.482C361.4 272.717 362.375 272.147 363.485 271.772C364.595 271.397 365.668 271.21 366.703 271.21C368.728 271.21 370.52 271.675 372.08 272.605C373.655 273.52 374.885 274.772 375.77 276.362C376.67 277.952 377.12 279.76 377.12 281.785C377.12 283.81 376.595 285.647 375.545 287.297C374.495 288.932 373.108 290.237 371.383 291.212C369.673 292.188 367.798 292.675 365.758 292.675ZM387.017 292L383.417 288.4L412.24 259.6L415.84 263.222L387.017 292ZM409.09 292.675C407.605 292.675 406.247 292.315 405.017 291.595C403.802 290.86 402.827 289.885 402.092 288.67C401.357 287.44 400.99 286.075 400.99 284.575C400.99 283.105 401.365 281.755 402.115 280.525C402.865 279.295 403.855 278.312 405.085 277.577C406.315 276.842 407.65 276.475 409.09 276.475C410.575 276.475 411.932 276.842 413.162 277.577C414.392 278.297 415.367 279.272 416.087 280.502C416.822 281.717 417.19 283.075 417.19 284.575C417.19 286.075 416.822 287.44 416.087 288.67C415.367 289.885 414.392 290.86 413.162 291.595C411.932 292.315 410.575 292.675 409.09 292.675ZM409.09 288.04C409.705 288.04 410.275 287.882 410.8 287.567C411.34 287.252 411.767 286.832 412.082 286.307C412.397 285.782 412.555 285.205 412.555 284.575C412.555 283.945 412.397 283.367 412.082 282.842C411.767 282.317 411.34 281.897 410.8 281.582C410.275 281.267 409.705 281.11 409.09 281.11C408.46 281.11 407.882 281.267 407.357 281.582C406.832 281.897 406.405 282.317 406.075 282.842C405.76 283.367 405.602 283.945 405.602 284.575C405.602 285.205 405.76 285.782 406.075 286.307C406.405 286.832 406.832 287.252 407.357 287.567C407.882 287.882 408.46 288.04 409.09 288.04ZM390.167 275.125C388.682 275.125 387.325 274.765 386.095 274.045C384.865 273.31 383.882 272.335 383.147 271.12C382.427 269.89 382.067 268.525 382.067 267.025C382.067 265.555 382.442 264.205 383.192 262.975C383.942 261.745 384.932 260.762 386.162 260.027C387.392 259.292 388.727 258.925 390.167 258.925C391.652 258.925 393.002 259.292 394.217 260.027C395.447 260.747 396.43 261.722 397.165 262.952C397.9 264.167 398.267 265.525 398.267 267.025C398.267 268.525 397.9 269.89 397.165 271.12C396.43 272.335 395.447 273.31 394.217 274.045C393.002 274.765 391.652 275.125 390.167 275.125ZM390.167 270.49C390.797 270.49 391.375 270.332 391.9 270.017C392.425 269.702 392.845 269.282 393.16 268.758C393.475 268.232 393.632 267.655 393.632 267.025C393.632 266.395 393.475 265.817 393.16 265.292C392.845 264.767 392.425 264.347 391.9 264.032C391.375 263.717 390.797 263.56 390.167 263.56C389.537 263.56 388.96 263.717 388.435 264.032C387.91 264.347 387.49 264.767 387.175 265.292C386.86 265.817 386.702 266.395 386.702 267.025C386.702 267.655 386.86 268.232 387.175 268.758C387.49 269.282 387.91 269.702 388.435 270.017C388.96 270.332 389.537 270.49 390.167 270.49Z" fill="white"/>
<rect x="413" y="156" width="79" height="46" rx="8" fill="#2EEC7A"/>
<path d="M434.3 188.974V186.244L442.308 179.107C442.932 178.552 443.365 178.028 443.608 177.534C443.851 177.04 443.972 176.563 443.972 176.104C443.972 175.48 443.838 174.925 443.569 174.44C443.3 173.946 442.928 173.556 442.451 173.27C441.983 172.984 441.441 172.841 440.826 172.841C440.176 172.841 439.6 172.993 439.097 173.296C438.603 173.591 438.217 173.985 437.94 174.479C437.663 174.973 437.533 175.506 437.55 176.078H434.326C434.326 174.83 434.603 173.742 435.158 172.815C435.721 171.888 436.493 171.168 437.472 170.657C438.46 170.146 439.6 169.89 440.891 169.89C442.087 169.89 443.162 170.159 444.115 170.696C445.068 171.225 445.818 171.961 446.364 172.906C446.91 173.842 447.183 174.921 447.183 176.143C447.183 177.036 447.062 177.785 446.819 178.392C446.576 178.999 446.212 179.558 445.727 180.069C445.25 180.58 444.657 181.148 443.946 181.772L438.265 186.803L437.979 186.023H447.183V188.974H434.3ZM452.908 189L450.828 186.92L467.481 170.28L469.561 172.373L452.908 189ZM465.661 189.39C464.803 189.39 464.019 189.182 463.308 188.766C462.606 188.341 462.043 187.778 461.618 187.076C461.194 186.365 460.981 185.577 460.981 184.71C460.981 183.861 461.198 183.081 461.631 182.37C462.065 181.659 462.637 181.092 463.347 180.667C464.058 180.242 464.829 180.03 465.661 180.03C466.519 180.03 467.304 180.242 468.014 180.667C468.725 181.083 469.288 181.646 469.704 182.357C470.129 183.059 470.341 183.843 470.341 184.71C470.341 185.577 470.129 186.365 469.704 187.076C469.288 187.778 468.725 188.341 468.014 188.766C467.304 189.182 466.519 189.39 465.661 189.39ZM465.661 186.712C466.017 186.712 466.346 186.621 466.649 186.439C466.961 186.257 467.208 186.014 467.39 185.711C467.572 185.408 467.663 185.074 467.663 184.71C467.663 184.346 467.572 184.012 467.39 183.709C467.208 183.406 466.961 183.163 466.649 182.981C466.346 182.799 466.017 182.708 465.661 182.708C465.297 182.708 464.964 182.799 464.66 182.981C464.357 183.163 464.11 183.406 463.919 183.709C463.737 184.012 463.646 184.346 463.646 184.71C463.646 185.074 463.737 185.408 463.919 185.711C464.11 186.014 464.357 186.257 464.66 186.439C464.964 186.621 465.297 186.712 465.661 186.712ZM454.728 179.25C453.87 179.25 453.086 179.042 452.375 178.626C451.665 178.201 451.097 177.638 450.672 176.936C450.256 176.225 450.048 175.437 450.048 174.57C450.048 173.721 450.265 172.941 450.698 172.23C451.132 171.519 451.704 170.952 452.414 170.527C453.125 170.102 453.896 169.89 454.728 169.89C455.586 169.89 456.366 170.102 457.068 170.527C457.779 170.943 458.347 171.506 458.771 172.217C459.196 172.919 459.408 173.703 459.408 174.57C459.408 175.437 459.196 176.225 458.771 176.936C458.347 177.638 457.779 178.201 457.068 178.626C456.366 179.042 455.586 179.25 454.728 179.25ZM454.728 176.572C455.092 176.572 455.426 176.481 455.729 176.299C456.033 176.117 456.275 175.874 456.457 175.571C456.639 175.268 456.73 174.934 456.73 174.57C456.73 174.206 456.639 173.872 456.457 173.569C456.275 173.266 456.033 173.023 455.729 172.841C455.426 172.659 455.092 172.568 454.728 172.568C454.364 172.568 454.031 172.659 453.727 172.841C453.424 173.023 453.181 173.266 452.999 173.569C452.817 173.872 452.726 174.206 452.726 174.57C452.726 174.934 452.817 175.268 452.999 175.571C453.181 175.874 453.424 176.117 453.727 176.299C454.031 176.481 454.364 176.572 454.728 176.572Z" fill="white"/>
<rect x="457" y="84" width="57" height="37" rx="5" fill="#6869FF"/>
<path d="M475.9 110V98.23L473.2 99.88V97.22L475.9 95.6H478.36V110H475.9ZM484.17 110L482.57 108.4L495.38 95.6L496.98 97.21L484.17 110ZM493.98 110.3C493.32 110.3 492.716 110.14 492.17 109.82C491.63 109.493 491.196 109.06 490.87 108.52C490.543 107.973 490.38 107.367 490.38 106.7C490.38 106.047 490.546 105.447 490.88 104.9C491.213 104.353 491.653 103.917 492.2 103.59C492.746 103.263 493.34 103.1 493.98 103.1C494.64 103.1 495.243 103.263 495.79 103.59C496.336 103.91 496.77 104.343 497.09 104.89C497.416 105.43 497.58 106.033 497.58 106.7C497.58 107.367 497.416 107.973 497.09 108.52C496.77 109.06 496.336 109.493 495.79 109.82C495.243 110.14 494.64 110.3 493.98 110.3ZM493.98 108.24C494.253 108.24 494.506 108.17 494.74 108.03C494.98 107.89 495.17 107.703 495.31 107.47C495.45 107.237 495.52 106.98 495.52 106.7C495.52 106.42 495.45 106.163 495.31 105.93C495.17 105.697 494.98 105.51 494.74 105.37C494.506 105.23 494.253 105.16 493.98 105.16C493.7 105.16 493.443 105.23 493.21 105.37C492.976 105.51 492.786 105.697 492.64 105.93C492.5 106.163 492.43 106.42 492.43 106.7C492.43 106.98 492.5 107.237 492.64 107.47C492.786 107.703 492.976 107.89 493.21 108.03C493.443 108.17 493.7 108.24 493.98 108.24ZM485.57 102.5C484.91 102.5 484.306 102.34 483.76 102.02C483.213 101.693 482.776 101.26 482.45 100.72C482.13 100.173 481.97 99.5667 481.97 98.9C481.97 98.2467 482.136 97.6467 482.47 97.1C482.803 96.5533 483.243 96.1167 483.79 95.79C484.336 95.4633 484.93 95.3 485.57 95.3C486.23 95.3 486.83 95.4633 487.37 95.79C487.916 96.11 488.353 96.5433 488.68 97.09C489.006 97.63 489.17 98.2333 489.17 98.9C489.17 99.5667 489.006 100.173 488.68 100.72C488.353 101.26 487.916 101.693 487.37 102.02C486.83 102.34 486.23 102.5 485.57 102.5ZM485.57 100.44C485.85 100.44 486.106 100.37 486.34 100.23C486.573 100.09 486.76 99.9033 486.9 99.67C487.04 99.4367 487.11 99.18 487.11 98.9C487.11 98.62 487.04 98.3633 486.9 98.13C486.76 97.8967 486.573 97.71 486.34 97.57C486.106 97.43 485.85 97.36 485.57 97.36C485.29 97.36 485.033 97.43 484.8 97.57C484.566 97.71 484.38 97.8967 484.24 98.13C484.1 98.3633 484.03 98.62 484.03 98.9C484.03 99.18 484.1 99.4367 484.24 99.67C484.38 99.9033 484.566 100.09 484.8 100.23C485.033 100.37 485.29 100.44 485.57 100.44Z" fill="white"/>
<defs>
<filter id="filter0_d_445_312" x="0" y="0.664551" width="495.372" height="383.202" filterUnits="userSpaceOnUse" color-interpolation-filters="sRGB">
<feFlood flood-opacity="0" result="BackgroundImageFix"/>
<feColorMatrix in="SourceAlpha" type="matrix" values="0 0 0 0 0 0 0 0 0 0 0 0 0 0 0 0 0 0 127 0" result="hardAlpha"/>
<feOffset dy="4"/>
<feGaussianBlur stdDeviation="25"/>
<feComposite in2="hardAlpha" operator="out"/>
<feColorMatrix type="matrix" values="0 0 0 0 0.661083 0 0 0 0 0.654167 0 0 0 0 1 0 0 0 0.19 0"/>
<feBlend mode="normal" in2="BackgroundImageFix" result="effect1_dropShadow_445_312"/>
<feBlend mode="normal" in="SourceGraphic" in2="effect1_dropShadow_445_312" result="shape"/>
</filter>
<linearGradient id="paint0_linear_445_312" x1="62.426" y1="87.8474" x2="349.22" y2="229.153" gradientUnits="userSpaceOnUse">
<stop stop-color="#0D8BFF"/>
<stop offset="1" stop-color="#6B68FF"/>
</linearGradient>
</defs>
</svg>
